<?xml version="1.0" standalone="no"?>
<!DOCTYPE svg PUBLIC "-//W3C//DTD SVG 20010904//EN"
 "http://www.w3.org/TR/2001/REC-SVG-20010904/DTD/svg10.dtd">
<svg version="1.0" xmlns="http://www.w3.org/2000/svg"
 width="500.000000pt" height="500.000000pt" viewBox="0 0 500.000000 500.000000"
 preserveAspectRatio="xMidYMid meet">

<g transform="translate(0.000000,500.000000) scale(0.100000,-0.100000)"
fill="#000055" stroke="none">
<path d="M2299 3889 c-118 -89 -242 -184 -276 -211 l-63 -50 0 -1252 0 -1252
124 -77 c69 -43 131 -80 139 -83 11 -4 15 48 20 318 4 178 7 473 7 656 l0 332
270 0 270 0 0 145 0 145 -270 0 -270 0 0 468 0 467 131 98 c71 53 136 97 143
97 8 0 70 -43 140 -96 l126 -96 0 -279 0 -279 145 0 145 0 -2 347 -3 348 -140
108 c-260 200 -404 307 -413 307 -5 0 -105 -73 -223 -161z"/>
<path d="M3286 3297 c-4 -116 -6 -633 -4 -1148 l3 -936 133 80 132 80 0 413 0
414 135 0 135 0 0 -98 c0 -192 13 -522 21 -522 4 0 68 37 141 83 l133 83 3
610 2 610 -132 92 -133 92 -6 -207 c-3 -115 -7 -250 -8 -300 l-1 -93 -145 0
-145 0 -2 392 -3 392 -110 78 c-60 43 -117 83 -126 88 -15 9 -17 -10 -23 -203z"/>
<path d="M1608 3360 l-138 -105 0 -420 0 -420 -38 44 c-36 42 -41 45 -101 49
l-63 5 -49 -49 -49 -48 -1 254 c0 140 -4 275 -7 299 l-7 44 -137 -104 -138
-104 0 -501 0 -501 125 -78 c69 -42 131 -75 139 -72 7 3 20 20 29 39 131 279
139 292 147 277 5 -8 39 -125 75 -260 37 -134 73 -254 80 -265 8 -12 71 -58
142 -102 l128 -82 6 313 c8 401 8 1196 0 1587 l-6 305 -137 -105z"/>
</g>
</svg>
